<mxfile host="app.diagrams.net" modified="2023-11-07T19:59:26.570Z" agent="Mozilla/5.0 (Macintosh; Intel Mac OS X 10_15_7) AppleWebKit/605.1.15 (KHTML, like Gecko) Version/15.4 Safari/605.1.15" etag="ZHQC6mOFXw1m9yAkeMGY" version="22.0.8" type="device">
  <diagram name="Страница — 1" id="HBDwtSqd_FWO5Bhm43dQ">
    <mxGraphModel dx="855" dy="577" grid="1" gridSize="10" guides="1" tooltips="1" connect="1" arrows="1" fold="1" page="1" pageScale="1" pageWidth="3300" pageHeight="4681" math="0" shadow="0">
      <root>
        <mxCell id="0" />
        <mxCell id="1" parent="0" />
        <mxCell id="i1HpS0fMFRLG9WeGAnzn-1" value="Login Page&lt;br&gt;(everyone)" style="text;html=1;strokeColor=none;fillColor=none;align=center;verticalAlign=middle;whiteSpace=wrap;rounded=0;" vertex="1" parent="1">
          <mxGeometry x="30" y="20" width="60" height="30" as="geometry" />
        </mxCell>
        <mxCell id="i1HpS0fMFRLG9WeGAnzn-13" value="" style="swimlane;startSize=0;" vertex="1" parent="1">
          <mxGeometry x="20" y="10" width="200" height="140" as="geometry" />
        </mxCell>
        <mxCell id="i1HpS0fMFRLG9WeGAnzn-14" value="" style="swimlane;startSize=0;" vertex="1" parent="i1HpS0fMFRLG9WeGAnzn-13">
          <mxGeometry width="80" height="60" as="geometry" />
        </mxCell>
        <mxCell id="i1HpS0fMFRLG9WeGAnzn-2" value="Logging in" style="text;html=1;strokeColor=none;fillColor=none;align=center;verticalAlign=middle;whiteSpace=wrap;rounded=0;" vertex="1" parent="i1HpS0fMFRLG9WeGAnzn-13">
          <mxGeometry x="110" y="84" width="60" height="30" as="geometry" />
        </mxCell>
        <mxCell id="i1HpS0fMFRLG9WeGAnzn-3" value="Creating password&lt;br&gt;(for new accounts)" style="text;html=1;strokeColor=none;fillColor=none;align=center;verticalAlign=middle;whiteSpace=wrap;rounded=0;" vertex="1" parent="i1HpS0fMFRLG9WeGAnzn-13">
          <mxGeometry x="10" y="84" width="60" height="30" as="geometry" />
        </mxCell>
        <mxCell id="i1HpS0fMFRLG9WeGAnzn-15" value="" style="swimlane;startSize=0;fillColor=#f8cecc;strokeColor=#b85450;" vertex="1" parent="1">
          <mxGeometry x="20" y="190" width="280" height="240" as="geometry" />
        </mxCell>
        <mxCell id="i1HpS0fMFRLG9WeGAnzn-16" value="" style="swimlane;startSize=0;fillColor=#f8cecc;strokeColor=#b85450;" vertex="1" parent="i1HpS0fMFRLG9WeGAnzn-15">
          <mxGeometry width="80" height="60" as="geometry" />
        </mxCell>
        <mxCell id="i1HpS0fMFRLG9WeGAnzn-5" value="Main Page (Admin)" style="text;html=1;strokeColor=none;fillColor=none;align=center;verticalAlign=middle;whiteSpace=wrap;rounded=0;" vertex="1" parent="i1HpS0fMFRLG9WeGAnzn-16">
          <mxGeometry x="10" y="15" width="60" height="30" as="geometry" />
        </mxCell>
        <mxCell id="i1HpS0fMFRLG9WeGAnzn-7" value="Open&amp;nbsp;&lt;br&gt;Accounts Management&lt;br&gt;Menu" style="text;html=1;strokeColor=none;fillColor=none;align=center;verticalAlign=middle;whiteSpace=wrap;rounded=0;" vertex="1" parent="i1HpS0fMFRLG9WeGAnzn-15">
          <mxGeometry x="20" y="90" width="60" height="30" as="geometry" />
        </mxCell>
        <mxCell id="i1HpS0fMFRLG9WeGAnzn-9" value="Open&amp;nbsp;&lt;br&gt;Supply Management Menu" style="text;html=1;strokeColor=none;fillColor=none;align=center;verticalAlign=middle;whiteSpace=wrap;rounded=0;" vertex="1" parent="i1HpS0fMFRLG9WeGAnzn-15">
          <mxGeometry x="110" y="90" width="60" height="30" as="geometry" />
        </mxCell>
        <mxCell id="i1HpS0fMFRLG9WeGAnzn-10" value="Open&amp;nbsp;&lt;br&gt;Departments Management Menu" style="text;html=1;strokeColor=none;fillColor=none;align=center;verticalAlign=middle;whiteSpace=wrap;rounded=0;" vertex="1" parent="i1HpS0fMFRLG9WeGAnzn-15">
          <mxGeometry x="20" y="180" width="60" height="30" as="geometry" />
        </mxCell>
        <mxCell id="i1HpS0fMFRLG9WeGAnzn-11" value="Open&amp;nbsp;&lt;br&gt;System Management Menu" style="text;html=1;strokeColor=none;fillColor=none;align=center;verticalAlign=middle;whiteSpace=wrap;rounded=0;" vertex="1" parent="i1HpS0fMFRLG9WeGAnzn-15">
          <mxGeometry x="110" y="180" width="60" height="30" as="geometry" />
        </mxCell>
        <mxCell id="i1HpS0fMFRLG9WeGAnzn-12" value="Open&amp;nbsp;&lt;br&gt;Complaints Menu" style="text;html=1;strokeColor=none;fillColor=none;align=center;verticalAlign=middle;whiteSpace=wrap;rounded=0;" vertex="1" parent="i1HpS0fMFRLG9WeGAnzn-15">
          <mxGeometry x="110" y="30" width="60" height="30" as="geometry" />
        </mxCell>
        <mxCell id="i1HpS0fMFRLG9WeGAnzn-6" value="Logging out" style="text;html=1;strokeColor=none;fillColor=none;align=center;verticalAlign=middle;whiteSpace=wrap;rounded=0;" vertex="1" parent="i1HpS0fMFRLG9WeGAnzn-15">
          <mxGeometry x="200" y="180" width="60" height="30" as="geometry" />
        </mxCell>
        <mxCell id="i1HpS0fMFRLG9WeGAnzn-28" value="" style="swimlane;startSize=0;fillColor=#d5e8d4;strokeColor=#82b366;" vertex="1" parent="1">
          <mxGeometry x="260" y="10" width="280" height="140" as="geometry" />
        </mxCell>
        <mxCell id="i1HpS0fMFRLG9WeGAnzn-29" value="" style="swimlane;startSize=0;fillColor=#d5e8d4;strokeColor=#82b366;" vertex="1" parent="i1HpS0fMFRLG9WeGAnzn-28">
          <mxGeometry width="80" height="60" as="geometry" />
        </mxCell>
        <mxCell id="i1HpS0fMFRLG9WeGAnzn-30" value="Main Page (Data&lt;br&gt;Producer)" style="text;html=1;strokeColor=none;fillColor=none;align=center;verticalAlign=middle;whiteSpace=wrap;rounded=0;" vertex="1" parent="i1HpS0fMFRLG9WeGAnzn-29">
          <mxGeometry x="10" y="15" width="60" height="30" as="geometry" />
        </mxCell>
        <mxCell id="i1HpS0fMFRLG9WeGAnzn-31" value="Open&amp;nbsp;&lt;br&gt;Upload Data&lt;br&gt;Menu" style="text;html=1;strokeColor=none;fillColor=none;align=center;verticalAlign=middle;whiteSpace=wrap;rounded=0;" vertex="1" parent="i1HpS0fMFRLG9WeGAnzn-28">
          <mxGeometry x="20" y="85.5" width="60" height="30" as="geometry" />
        </mxCell>
        <mxCell id="i1HpS0fMFRLG9WeGAnzn-32" value="Open&amp;nbsp;&lt;br&gt;Orders Processing&lt;br&gt;Menu" style="text;html=1;strokeColor=none;fillColor=none;align=center;verticalAlign=middle;whiteSpace=wrap;rounded=0;" vertex="1" parent="i1HpS0fMFRLG9WeGAnzn-28">
          <mxGeometry x="110" y="85.5" width="60" height="30" as="geometry" />
        </mxCell>
        <mxCell id="i1HpS0fMFRLG9WeGAnzn-35" value="Open&amp;nbsp;&lt;br&gt;Complaints Menu" style="text;html=1;strokeColor=none;fillColor=none;align=center;verticalAlign=middle;whiteSpace=wrap;rounded=0;" vertex="1" parent="i1HpS0fMFRLG9WeGAnzn-28">
          <mxGeometry x="110" y="25.5" width="60" height="30" as="geometry" />
        </mxCell>
        <mxCell id="i1HpS0fMFRLG9WeGAnzn-36" value="Logging out" style="text;html=1;strokeColor=none;fillColor=none;align=center;verticalAlign=middle;whiteSpace=wrap;rounded=0;" vertex="1" parent="i1HpS0fMFRLG9WeGAnzn-28">
          <mxGeometry x="200" y="85.5" width="60" height="30" as="geometry" />
        </mxCell>
        <mxCell id="i1HpS0fMFRLG9WeGAnzn-37" value="" style="swimlane;startSize=0;fillColor=#0050ef;fontColor=#ffffff;strokeColor=#001DBC;" vertex="1" parent="1">
          <mxGeometry x="340" y="190" width="280" height="150" as="geometry" />
        </mxCell>
        <mxCell id="i1HpS0fMFRLG9WeGAnzn-38" value="" style="swimlane;startSize=0;fillColor=#0050ef;fontColor=#ffffff;strokeColor=#001DBC;" vertex="1" parent="i1HpS0fMFRLG9WeGAnzn-37">
          <mxGeometry width="80" height="60" as="geometry" />
        </mxCell>
        <mxCell id="i1HpS0fMFRLG9WeGAnzn-39" value="Main Page (Editor)" style="text;html=1;strokeColor=none;fillColor=none;align=center;verticalAlign=middle;whiteSpace=wrap;rounded=0;" vertex="1" parent="i1HpS0fMFRLG9WeGAnzn-38">
          <mxGeometry x="10" y="15" width="60" height="30" as="geometry" />
        </mxCell>
        <mxCell id="i1HpS0fMFRLG9WeGAnzn-40" value="Open&amp;nbsp;&lt;br&gt;Limits Management&lt;br&gt;Menu" style="text;html=1;strokeColor=none;fillColor=none;align=center;verticalAlign=middle;whiteSpace=wrap;rounded=0;" vertex="1" parent="i1HpS0fMFRLG9WeGAnzn-37">
          <mxGeometry x="20" y="90" width="60" height="30" as="geometry" />
        </mxCell>
        <mxCell id="i1HpS0fMFRLG9WeGAnzn-41" value="Open&amp;nbsp;&lt;br&gt;Orders Processing&lt;br&gt;Menu" style="text;html=1;strokeColor=none;fillColor=none;align=center;verticalAlign=middle;whiteSpace=wrap;rounded=0;" vertex="1" parent="i1HpS0fMFRLG9WeGAnzn-37">
          <mxGeometry x="110" y="90" width="60" height="30" as="geometry" />
        </mxCell>
        <mxCell id="i1HpS0fMFRLG9WeGAnzn-44" value="Open&amp;nbsp;&lt;br&gt;Complaints Menu" style="text;html=1;strokeColor=none;fillColor=none;align=center;verticalAlign=middle;whiteSpace=wrap;rounded=0;" vertex="1" parent="i1HpS0fMFRLG9WeGAnzn-37">
          <mxGeometry x="110" y="30" width="60" height="30" as="geometry" />
        </mxCell>
        <mxCell id="i1HpS0fMFRLG9WeGAnzn-45" value="Logging out" style="text;html=1;strokeColor=none;fillColor=none;align=center;verticalAlign=middle;whiteSpace=wrap;rounded=0;" vertex="1" parent="i1HpS0fMFRLG9WeGAnzn-37">
          <mxGeometry x="200" y="90" width="60" height="30" as="geometry" />
        </mxCell>
        <mxCell id="i1HpS0fMFRLG9WeGAnzn-55" value="" style="swimlane;startSize=0;" vertex="1" parent="1">
          <mxGeometry x="20" y="470" width="280" height="150" as="geometry" />
        </mxCell>
        <mxCell id="i1HpS0fMFRLG9WeGAnzn-56" value="" style="swimlane;startSize=0;" vertex="1" parent="i1HpS0fMFRLG9WeGAnzn-55">
          <mxGeometry width="80" height="60" as="geometry" />
        </mxCell>
        <mxCell id="i1HpS0fMFRLG9WeGAnzn-57" value="Complaints&lt;br&gt;Menu (Everyone)" style="text;html=1;strokeColor=none;fillColor=none;align=center;verticalAlign=middle;whiteSpace=wrap;rounded=0;" vertex="1" parent="i1HpS0fMFRLG9WeGAnzn-56">
          <mxGeometry x="10" y="15" width="60" height="30" as="geometry" />
        </mxCell>
        <mxCell id="i1HpS0fMFRLG9WeGAnzn-58" value="&amp;nbsp;Open Complaints&lt;br&gt;by Theme Menu" style="text;html=1;strokeColor=none;fillColor=none;align=center;verticalAlign=middle;whiteSpace=wrap;rounded=0;" vertex="1" parent="i1HpS0fMFRLG9WeGAnzn-55">
          <mxGeometry x="20" y="90" width="60" height="30" as="geometry" />
        </mxCell>
        <mxCell id="i1HpS0fMFRLG9WeGAnzn-59" value="Open Create Complaint Menu" style="text;html=1;strokeColor=none;fillColor=none;align=center;verticalAlign=middle;whiteSpace=wrap;rounded=0;" vertex="1" parent="i1HpS0fMFRLG9WeGAnzn-55">
          <mxGeometry x="110" y="90" width="60" height="30" as="geometry" />
        </mxCell>
        <mxCell id="i1HpS0fMFRLG9WeGAnzn-61" value="Return to Previous Page" style="text;html=1;strokeColor=none;fillColor=none;align=center;verticalAlign=middle;whiteSpace=wrap;rounded=0;" vertex="1" parent="i1HpS0fMFRLG9WeGAnzn-55">
          <mxGeometry x="110" y="15" width="60" height="30" as="geometry" />
        </mxCell>
        <mxCell id="i1HpS0fMFRLG9WeGAnzn-63" value="Logging out" style="text;html=1;strokeColor=none;fillColor=none;align=center;verticalAlign=middle;whiteSpace=wrap;rounded=0;" vertex="1" parent="i1HpS0fMFRLG9WeGAnzn-55">
          <mxGeometry x="200" y="90" width="60" height="30" as="geometry" />
        </mxCell>
        <mxCell id="i1HpS0fMFRLG9WeGAnzn-64" value="" style="swimlane;startSize=0;fillColor=#f8cecc;strokeColor=#b85450;" vertex="1" parent="1">
          <mxGeometry x="340" y="380" width="280" height="240" as="geometry" />
        </mxCell>
        <mxCell id="i1HpS0fMFRLG9WeGAnzn-65" value="" style="swimlane;startSize=0;fillColor=#f8cecc;strokeColor=#b85450;" vertex="1" parent="i1HpS0fMFRLG9WeGAnzn-64">
          <mxGeometry width="80" height="60" as="geometry" />
        </mxCell>
        <mxCell id="i1HpS0fMFRLG9WeGAnzn-66" value="&amp;nbsp;Accounts&lt;br&gt;Management&amp;nbsp;&lt;br&gt;Menu (Admin)" style="text;html=1;strokeColor=none;fillColor=none;align=center;verticalAlign=middle;whiteSpace=wrap;rounded=0;" vertex="1" parent="i1HpS0fMFRLG9WeGAnzn-65">
          <mxGeometry x="10" y="15" width="60" height="30" as="geometry" />
        </mxCell>
        <mxCell id="i1HpS0fMFRLG9WeGAnzn-69" value="Return to Previous Page" style="text;html=1;strokeColor=none;fillColor=none;align=center;verticalAlign=middle;whiteSpace=wrap;rounded=0;" vertex="1" parent="i1HpS0fMFRLG9WeGAnzn-64">
          <mxGeometry x="170" y="15" width="60" height="30" as="geometry" />
        </mxCell>
        <mxCell id="i1HpS0fMFRLG9WeGAnzn-79" value="Delete&lt;br&gt;Accounts" style="text;html=1;strokeColor=none;fillColor=none;align=center;verticalAlign=middle;whiteSpace=wrap;rounded=0;" vertex="1" parent="i1HpS0fMFRLG9WeGAnzn-64">
          <mxGeometry x="170" y="125" width="60" height="30" as="geometry" />
        </mxCell>
        <mxCell id="i1HpS0fMFRLG9WeGAnzn-83" value="Ref" style="shape=umlFrame;whiteSpace=wrap;html=1;pointerEvents=0;" vertex="1" parent="i1HpS0fMFRLG9WeGAnzn-64">
          <mxGeometry x="145" y="85" width="110" height="80" as="geometry" />
        </mxCell>
        <mxCell id="i1HpS0fMFRLG9WeGAnzn-178" value="Open Create/Edit&lt;br&gt;Accounts Menu" style="text;html=1;strokeColor=none;fillColor=none;align=center;verticalAlign=middle;whiteSpace=wrap;rounded=0;" vertex="1" parent="i1HpS0fMFRLG9WeGAnzn-64">
          <mxGeometry x="45" y="110" width="60" height="30" as="geometry" />
        </mxCell>
        <mxCell id="i1HpS0fMFRLG9WeGAnzn-70" value="Logging out" style="text;html=1;strokeColor=none;fillColor=none;align=center;verticalAlign=middle;whiteSpace=wrap;rounded=0;" vertex="1" parent="i1HpS0fMFRLG9WeGAnzn-64">
          <mxGeometry x="45" y="190" width="60" height="30" as="geometry" />
        </mxCell>
        <mxCell id="i1HpS0fMFRLG9WeGAnzn-125" value="" style="swimlane;startSize=0;" vertex="1" parent="1">
          <mxGeometry x="20" y="660" width="280" height="340" as="geometry" />
        </mxCell>
        <mxCell id="i1HpS0fMFRLG9WeGAnzn-126" value="" style="swimlane;startSize=0;" vertex="1" parent="i1HpS0fMFRLG9WeGAnzn-125">
          <mxGeometry width="80" height="60" as="geometry" />
        </mxCell>
        <mxCell id="i1HpS0fMFRLG9WeGAnzn-127" value="Full Complaint Info&amp;nbsp;Menu (Everyone)" style="text;html=1;strokeColor=none;fillColor=none;align=center;verticalAlign=middle;whiteSpace=wrap;rounded=0;" vertex="1" parent="i1HpS0fMFRLG9WeGAnzn-126">
          <mxGeometry x="10" y="15" width="60" height="30" as="geometry" />
        </mxCell>
        <mxCell id="i1HpS0fMFRLG9WeGAnzn-128" value="Edit Complaint" style="text;html=1;strokeColor=none;fillColor=none;align=center;verticalAlign=middle;whiteSpace=wrap;rounded=0;" vertex="1" parent="i1HpS0fMFRLG9WeGAnzn-125">
          <mxGeometry x="45" y="120" width="60" height="30" as="geometry" />
        </mxCell>
        <mxCell id="i1HpS0fMFRLG9WeGAnzn-129" value="Close Complaint" style="text;html=1;strokeColor=none;fillColor=none;align=center;verticalAlign=middle;whiteSpace=wrap;rounded=0;" vertex="1" parent="i1HpS0fMFRLG9WeGAnzn-125">
          <mxGeometry x="175" y="105" width="60" height="60" as="geometry" />
        </mxCell>
        <mxCell id="i1HpS0fMFRLG9WeGAnzn-130" value="Return to Previous Page" style="text;html=1;strokeColor=none;fillColor=none;align=center;verticalAlign=middle;whiteSpace=wrap;rounded=0;" vertex="1" parent="i1HpS0fMFRLG9WeGAnzn-125">
          <mxGeometry x="175" y="205" width="60" height="30" as="geometry" />
        </mxCell>
        <mxCell id="i1HpS0fMFRLG9WeGAnzn-133" value="Ref" style="shape=umlFrame;whiteSpace=wrap;html=1;pointerEvents=0;" vertex="1" parent="i1HpS0fMFRLG9WeGAnzn-125">
          <mxGeometry x="20" y="80" width="110" height="80" as="geometry" />
        </mxCell>
        <mxCell id="i1HpS0fMFRLG9WeGAnzn-134" value="Ref" style="shape=umlFrame;whiteSpace=wrap;html=1;pointerEvents=0;" vertex="1" parent="i1HpS0fMFRLG9WeGAnzn-125">
          <mxGeometry x="150" y="80" width="110" height="80" as="geometry" />
        </mxCell>
        <mxCell id="i1HpS0fMFRLG9WeGAnzn-135" value="Reply to Complaint" style="text;html=1;strokeColor=none;fillColor=none;align=center;verticalAlign=middle;whiteSpace=wrap;rounded=0;" vertex="1" parent="i1HpS0fMFRLG9WeGAnzn-125">
          <mxGeometry x="45" y="205" width="60" height="60" as="geometry" />
        </mxCell>
        <mxCell id="i1HpS0fMFRLG9WeGAnzn-136" value="Ref" style="shape=umlFrame;whiteSpace=wrap;html=1;pointerEvents=0;" vertex="1" parent="i1HpS0fMFRLG9WeGAnzn-125">
          <mxGeometry x="20" y="180" width="110" height="80" as="geometry" />
        </mxCell>
        <mxCell id="i1HpS0fMFRLG9WeGAnzn-132" value="Return to Main Page" style="text;html=1;strokeColor=none;fillColor=none;align=center;verticalAlign=middle;whiteSpace=wrap;rounded=0;" vertex="1" parent="i1HpS0fMFRLG9WeGAnzn-125">
          <mxGeometry x="175" y="15" width="60" height="30" as="geometry" />
        </mxCell>
        <mxCell id="i1HpS0fMFRLG9WeGAnzn-131" value="Logging out" style="text;html=1;strokeColor=none;fillColor=none;align=center;verticalAlign=middle;whiteSpace=wrap;rounded=0;" vertex="1" parent="i1HpS0fMFRLG9WeGAnzn-125">
          <mxGeometry x="45" y="290" width="60" height="30" as="geometry" />
        </mxCell>
        <mxCell id="i1HpS0fMFRLG9WeGAnzn-138" value="" style="swimlane;startSize=0;" vertex="1" parent="1">
          <mxGeometry x="340" y="660" width="280" height="150" as="geometry" />
        </mxCell>
        <mxCell id="i1HpS0fMFRLG9WeGAnzn-139" value="" style="swimlane;startSize=0;" vertex="1" parent="i1HpS0fMFRLG9WeGAnzn-138">
          <mxGeometry width="80" height="60" as="geometry" />
        </mxCell>
        <mxCell id="i1HpS0fMFRLG9WeGAnzn-140" value="Complaints&lt;br&gt;by Theme&lt;br&gt;Menu (Everyone)" style="text;html=1;strokeColor=none;fillColor=none;align=center;verticalAlign=middle;whiteSpace=wrap;rounded=0;" vertex="1" parent="i1HpS0fMFRLG9WeGAnzn-139">
          <mxGeometry x="10" y="15" width="60" height="30" as="geometry" />
        </mxCell>
        <mxCell id="i1HpS0fMFRLG9WeGAnzn-141" value="Open Full Complaint Info Menu" style="text;html=1;strokeColor=none;fillColor=none;align=center;verticalAlign=middle;whiteSpace=wrap;rounded=0;" vertex="1" parent="i1HpS0fMFRLG9WeGAnzn-138">
          <mxGeometry x="20" y="90" width="60" height="30" as="geometry" />
        </mxCell>
        <mxCell id="i1HpS0fMFRLG9WeGAnzn-143" value="Return to Previous Page" style="text;html=1;strokeColor=none;fillColor=none;align=center;verticalAlign=middle;whiteSpace=wrap;rounded=0;" vertex="1" parent="i1HpS0fMFRLG9WeGAnzn-138">
          <mxGeometry x="110" y="15" width="60" height="30" as="geometry" />
        </mxCell>
        <mxCell id="i1HpS0fMFRLG9WeGAnzn-144" value="Logging out" style="text;html=1;strokeColor=none;fillColor=none;align=center;verticalAlign=middle;whiteSpace=wrap;rounded=0;" vertex="1" parent="i1HpS0fMFRLG9WeGAnzn-138">
          <mxGeometry x="110" y="90" width="60" height="30" as="geometry" />
        </mxCell>
        <mxCell id="i1HpS0fMFRLG9WeGAnzn-145" value="Return to Main Page" style="text;html=1;strokeColor=none;fillColor=none;align=center;verticalAlign=middle;whiteSpace=wrap;rounded=0;" vertex="1" parent="i1HpS0fMFRLG9WeGAnzn-138">
          <mxGeometry x="200" y="15" width="60" height="30" as="geometry" />
        </mxCell>
        <mxCell id="i1HpS0fMFRLG9WeGAnzn-146" value="" style="swimlane;startSize=0;" vertex="1" parent="1">
          <mxGeometry x="340" y="850" width="280" height="230" as="geometry" />
        </mxCell>
        <mxCell id="i1HpS0fMFRLG9WeGAnzn-147" value="" style="swimlane;startSize=0;" vertex="1" parent="i1HpS0fMFRLG9WeGAnzn-146">
          <mxGeometry width="80" height="60" as="geometry" />
        </mxCell>
        <mxCell id="i1HpS0fMFRLG9WeGAnzn-148" value="Create&lt;br&gt;Complaint&lt;br&gt;Menu (Everyone)" style="text;html=1;strokeColor=none;fillColor=none;align=center;verticalAlign=middle;whiteSpace=wrap;rounded=0;" vertex="1" parent="i1HpS0fMFRLG9WeGAnzn-147">
          <mxGeometry x="10" y="15" width="60" height="30" as="geometry" />
        </mxCell>
        <mxCell id="i1HpS0fMFRLG9WeGAnzn-149" value="Create Complaint" style="text;html=1;strokeColor=none;fillColor=none;align=center;verticalAlign=middle;whiteSpace=wrap;rounded=0;" vertex="1" parent="i1HpS0fMFRLG9WeGAnzn-146">
          <mxGeometry x="45" y="120" width="60" height="30" as="geometry" />
        </mxCell>
        <mxCell id="i1HpS0fMFRLG9WeGAnzn-151" value="Return to Previous Page" style="text;html=1;strokeColor=none;fillColor=none;align=center;verticalAlign=middle;whiteSpace=wrap;rounded=0;" vertex="1" parent="i1HpS0fMFRLG9WeGAnzn-146">
          <mxGeometry x="45" y="180" width="60" height="30" as="geometry" />
        </mxCell>
        <mxCell id="i1HpS0fMFRLG9WeGAnzn-152" value="Logging out" style="text;html=1;strokeColor=none;fillColor=none;align=center;verticalAlign=middle;whiteSpace=wrap;rounded=0;" vertex="1" parent="i1HpS0fMFRLG9WeGAnzn-146">
          <mxGeometry x="170" y="120" width="60" height="30" as="geometry" />
        </mxCell>
        <mxCell id="i1HpS0fMFRLG9WeGAnzn-153" value="Return to Main Page" style="text;html=1;strokeColor=none;fillColor=none;align=center;verticalAlign=middle;whiteSpace=wrap;rounded=0;" vertex="1" parent="i1HpS0fMFRLG9WeGAnzn-146">
          <mxGeometry x="170" y="15" width="60" height="30" as="geometry" />
        </mxCell>
        <mxCell id="i1HpS0fMFRLG9WeGAnzn-154" value="Ref" style="shape=umlFrame;whiteSpace=wrap;html=1;pointerEvents=0;" vertex="1" parent="i1HpS0fMFRLG9WeGAnzn-146">
          <mxGeometry x="20" y="80" width="110" height="80" as="geometry" />
        </mxCell>
        <mxCell id="i1HpS0fMFRLG9WeGAnzn-166" value="" style="swimlane;startSize=0;fillColor=#f8cecc;strokeColor=#b85450;" vertex="1" parent="1">
          <mxGeometry x="660" y="750" width="280" height="280" as="geometry" />
        </mxCell>
        <mxCell id="i1HpS0fMFRLG9WeGAnzn-167" value="" style="swimlane;startSize=0;fillColor=#f8cecc;strokeColor=#b85450;" vertex="1" parent="i1HpS0fMFRLG9WeGAnzn-166">
          <mxGeometry width="80" height="60" as="geometry" />
        </mxCell>
        <mxCell id="i1HpS0fMFRLG9WeGAnzn-168" value="Create/Edit&amp;nbsp;&lt;br&gt;Accounts Menu (Admin)" style="text;html=1;strokeColor=none;fillColor=none;align=center;verticalAlign=middle;whiteSpace=wrap;rounded=0;" vertex="1" parent="i1HpS0fMFRLG9WeGAnzn-167">
          <mxGeometry x="10" y="15" width="60" height="30" as="geometry" />
        </mxCell>
        <mxCell id="i1HpS0fMFRLG9WeGAnzn-169" value="Create&lt;br&gt;Account" style="text;html=1;strokeColor=none;fillColor=none;align=center;verticalAlign=middle;whiteSpace=wrap;rounded=0;" vertex="1" parent="i1HpS0fMFRLG9WeGAnzn-166">
          <mxGeometry x="45" y="115" width="60" height="30" as="geometry" />
        </mxCell>
        <mxCell id="i1HpS0fMFRLG9WeGAnzn-170" value="Edit Account" style="text;html=1;strokeColor=none;fillColor=none;align=center;verticalAlign=middle;whiteSpace=wrap;rounded=0;" vertex="1" parent="i1HpS0fMFRLG9WeGAnzn-166">
          <mxGeometry x="175" y="115" width="60" height="30" as="geometry" />
        </mxCell>
        <mxCell id="i1HpS0fMFRLG9WeGAnzn-171" value="Return to Previous Page" style="text;html=1;strokeColor=none;fillColor=none;align=center;verticalAlign=middle;whiteSpace=wrap;rounded=0;" vertex="1" parent="i1HpS0fMFRLG9WeGAnzn-166">
          <mxGeometry x="170" y="15" width="60" height="30" as="geometry" />
        </mxCell>
        <mxCell id="i1HpS0fMFRLG9WeGAnzn-172" value="Logging out" style="text;html=1;strokeColor=none;fillColor=none;align=center;verticalAlign=middle;whiteSpace=wrap;rounded=0;" vertex="1" parent="i1HpS0fMFRLG9WeGAnzn-166">
          <mxGeometry x="170" y="205" width="60" height="30" as="geometry" />
        </mxCell>
        <mxCell id="i1HpS0fMFRLG9WeGAnzn-174" value="Ref" style="shape=umlFrame;whiteSpace=wrap;html=1;pointerEvents=0;" vertex="1" parent="i1HpS0fMFRLG9WeGAnzn-166">
          <mxGeometry x="20" y="80" width="110" height="80" as="geometry" />
        </mxCell>
        <mxCell id="i1HpS0fMFRLG9WeGAnzn-175" value="Ref" style="shape=umlFrame;whiteSpace=wrap;html=1;pointerEvents=0;" vertex="1" parent="i1HpS0fMFRLG9WeGAnzn-166">
          <mxGeometry x="150" y="80" width="110" height="80" as="geometry" />
        </mxCell>
        <mxCell id="i1HpS0fMFRLG9WeGAnzn-177" value="Return to Main Page" style="text;html=1;strokeColor=none;fillColor=none;align=center;verticalAlign=middle;whiteSpace=wrap;rounded=0;" vertex="1" parent="i1HpS0fMFRLG9WeGAnzn-166">
          <mxGeometry x="45" y="200" width="60" height="30" as="geometry" />
        </mxCell>
        <mxCell id="i1HpS0fMFRLG9WeGAnzn-187" value="" style="swimlane;startSize=0;fillColor=#f8cecc;strokeColor=#b85450;" vertex="1" parent="1">
          <mxGeometry x="660" y="190" width="280" height="240" as="geometry" />
        </mxCell>
        <mxCell id="i1HpS0fMFRLG9WeGAnzn-188" value="" style="swimlane;startSize=0;fillColor=#f8cecc;strokeColor=#b85450;" vertex="1" parent="i1HpS0fMFRLG9WeGAnzn-187">
          <mxGeometry width="80" height="60" as="geometry" />
        </mxCell>
        <mxCell id="i1HpS0fMFRLG9WeGAnzn-189" value="&amp;nbsp;Supply&lt;br&gt;Management&amp;nbsp;&lt;br&gt;Menu (Admin)" style="text;html=1;strokeColor=none;fillColor=none;align=center;verticalAlign=middle;whiteSpace=wrap;rounded=0;" vertex="1" parent="i1HpS0fMFRLG9WeGAnzn-188">
          <mxGeometry x="10" y="15" width="60" height="30" as="geometry" />
        </mxCell>
        <mxCell id="i1HpS0fMFRLG9WeGAnzn-190" value="Return to Previous Page" style="text;html=1;strokeColor=none;fillColor=none;align=center;verticalAlign=middle;whiteSpace=wrap;rounded=0;" vertex="1" parent="i1HpS0fMFRLG9WeGAnzn-187">
          <mxGeometry x="170" y="15" width="60" height="30" as="geometry" />
        </mxCell>
        <mxCell id="i1HpS0fMFRLG9WeGAnzn-191" value="Delete&lt;br&gt;Supply" style="text;html=1;strokeColor=none;fillColor=none;align=center;verticalAlign=middle;whiteSpace=wrap;rounded=0;" vertex="1" parent="i1HpS0fMFRLG9WeGAnzn-187">
          <mxGeometry x="170" y="125" width="60" height="30" as="geometry" />
        </mxCell>
        <mxCell id="i1HpS0fMFRLG9WeGAnzn-192" value="Ref" style="shape=umlFrame;whiteSpace=wrap;html=1;pointerEvents=0;" vertex="1" parent="i1HpS0fMFRLG9WeGAnzn-187">
          <mxGeometry x="145" y="85" width="110" height="80" as="geometry" />
        </mxCell>
        <mxCell id="i1HpS0fMFRLG9WeGAnzn-193" value="Open Create/Edit&lt;br&gt;Supply Menu" style="text;html=1;strokeColor=none;fillColor=none;align=center;verticalAlign=middle;whiteSpace=wrap;rounded=0;" vertex="1" parent="i1HpS0fMFRLG9WeGAnzn-187">
          <mxGeometry x="45" y="110" width="60" height="30" as="geometry" />
        </mxCell>
        <mxCell id="i1HpS0fMFRLG9WeGAnzn-194" value="Logging out" style="text;html=1;strokeColor=none;fillColor=none;align=center;verticalAlign=middle;whiteSpace=wrap;rounded=0;" vertex="1" parent="i1HpS0fMFRLG9WeGAnzn-187">
          <mxGeometry x="45" y="190" width="60" height="30" as="geometry" />
        </mxCell>
        <mxCell id="i1HpS0fMFRLG9WeGAnzn-195" value="" style="swimlane;startSize=0;fillColor=#f8cecc;strokeColor=#b85450;" vertex="1" parent="1">
          <mxGeometry x="660" y="470" width="280" height="240" as="geometry" />
        </mxCell>
        <mxCell id="i1HpS0fMFRLG9WeGAnzn-196" value="" style="swimlane;startSize=0;fillColor=#f8cecc;strokeColor=#b85450;" vertex="1" parent="i1HpS0fMFRLG9WeGAnzn-195">
          <mxGeometry width="80" height="60" as="geometry" />
        </mxCell>
        <mxCell id="i1HpS0fMFRLG9WeGAnzn-197" value="&amp;nbsp;Departments&lt;br&gt;Management&amp;nbsp;&lt;br&gt;Menu (Admin)" style="text;html=1;strokeColor=none;fillColor=none;align=center;verticalAlign=middle;whiteSpace=wrap;rounded=0;" vertex="1" parent="i1HpS0fMFRLG9WeGAnzn-196">
          <mxGeometry x="10" y="15" width="60" height="30" as="geometry" />
        </mxCell>
        <mxCell id="i1HpS0fMFRLG9WeGAnzn-198" value="Return to Previous Page" style="text;html=1;strokeColor=none;fillColor=none;align=center;verticalAlign=middle;whiteSpace=wrap;rounded=0;" vertex="1" parent="i1HpS0fMFRLG9WeGAnzn-195">
          <mxGeometry x="170" y="15" width="60" height="30" as="geometry" />
        </mxCell>
        <mxCell id="i1HpS0fMFRLG9WeGAnzn-199" value="Delete&lt;br&gt;Department" style="text;html=1;strokeColor=none;fillColor=none;align=center;verticalAlign=middle;whiteSpace=wrap;rounded=0;" vertex="1" parent="i1HpS0fMFRLG9WeGAnzn-195">
          <mxGeometry x="170" y="125" width="60" height="30" as="geometry" />
        </mxCell>
        <mxCell id="i1HpS0fMFRLG9WeGAnzn-200" value="Ref" style="shape=umlFrame;whiteSpace=wrap;html=1;pointerEvents=0;" vertex="1" parent="i1HpS0fMFRLG9WeGAnzn-195">
          <mxGeometry x="145" y="85" width="110" height="80" as="geometry" />
        </mxCell>
        <mxCell id="i1HpS0fMFRLG9WeGAnzn-201" value="Open Create/Edit&lt;br&gt;Department Menu" style="text;html=1;strokeColor=none;fillColor=none;align=center;verticalAlign=middle;whiteSpace=wrap;rounded=0;" vertex="1" parent="i1HpS0fMFRLG9WeGAnzn-195">
          <mxGeometry x="45" y="110" width="60" height="30" as="geometry" />
        </mxCell>
        <mxCell id="i1HpS0fMFRLG9WeGAnzn-202" value="Logging out" style="text;html=1;strokeColor=none;fillColor=none;align=center;verticalAlign=middle;whiteSpace=wrap;rounded=0;" vertex="1" parent="i1HpS0fMFRLG9WeGAnzn-195">
          <mxGeometry x="45" y="190" width="60" height="30" as="geometry" />
        </mxCell>
        <mxCell id="i1HpS0fMFRLG9WeGAnzn-213" value="" style="swimlane;startSize=0;fillColor=#f8cecc;strokeColor=#b85450;" vertex="1" parent="1">
          <mxGeometry x="980" y="190" width="280" height="280" as="geometry" />
        </mxCell>
        <mxCell id="i1HpS0fMFRLG9WeGAnzn-214" value="" style="swimlane;startSize=0;fillColor=#f8cecc;strokeColor=#b85450;" vertex="1" parent="i1HpS0fMFRLG9WeGAnzn-213">
          <mxGeometry width="80" height="60" as="geometry" />
        </mxCell>
        <mxCell id="i1HpS0fMFRLG9WeGAnzn-215" value="Create/Edit&amp;nbsp;&lt;br&gt;Supply Menu (Admin)" style="text;html=1;strokeColor=none;fillColor=none;align=center;verticalAlign=middle;whiteSpace=wrap;rounded=0;" vertex="1" parent="i1HpS0fMFRLG9WeGAnzn-214">
          <mxGeometry x="10" y="15" width="60" height="30" as="geometry" />
        </mxCell>
        <mxCell id="i1HpS0fMFRLG9WeGAnzn-216" value="Create&lt;br&gt;Supply" style="text;html=1;strokeColor=none;fillColor=none;align=center;verticalAlign=middle;whiteSpace=wrap;rounded=0;" vertex="1" parent="i1HpS0fMFRLG9WeGAnzn-213">
          <mxGeometry x="45" y="115" width="60" height="30" as="geometry" />
        </mxCell>
        <mxCell id="i1HpS0fMFRLG9WeGAnzn-217" value="Edit Supply" style="text;html=1;strokeColor=none;fillColor=none;align=center;verticalAlign=middle;whiteSpace=wrap;rounded=0;" vertex="1" parent="i1HpS0fMFRLG9WeGAnzn-213">
          <mxGeometry x="175" y="115" width="60" height="30" as="geometry" />
        </mxCell>
        <mxCell id="i1HpS0fMFRLG9WeGAnzn-218" value="Return to Previous Page" style="text;html=1;strokeColor=none;fillColor=none;align=center;verticalAlign=middle;whiteSpace=wrap;rounded=0;" vertex="1" parent="i1HpS0fMFRLG9WeGAnzn-213">
          <mxGeometry x="170" y="15" width="60" height="30" as="geometry" />
        </mxCell>
        <mxCell id="i1HpS0fMFRLG9WeGAnzn-219" value="Logging out" style="text;html=1;strokeColor=none;fillColor=none;align=center;verticalAlign=middle;whiteSpace=wrap;rounded=0;" vertex="1" parent="i1HpS0fMFRLG9WeGAnzn-213">
          <mxGeometry x="170" y="205" width="60" height="30" as="geometry" />
        </mxCell>
        <mxCell id="i1HpS0fMFRLG9WeGAnzn-220" value="Ref" style="shape=umlFrame;whiteSpace=wrap;html=1;pointerEvents=0;" vertex="1" parent="i1HpS0fMFRLG9WeGAnzn-213">
          <mxGeometry x="20" y="80" width="110" height="80" as="geometry" />
        </mxCell>
        <mxCell id="i1HpS0fMFRLG9WeGAnzn-221" value="Ref" style="shape=umlFrame;whiteSpace=wrap;html=1;pointerEvents=0;" vertex="1" parent="i1HpS0fMFRLG9WeGAnzn-213">
          <mxGeometry x="150" y="80" width="110" height="80" as="geometry" />
        </mxCell>
        <mxCell id="i1HpS0fMFRLG9WeGAnzn-222" value="Return to Main Page" style="text;html=1;strokeColor=none;fillColor=none;align=center;verticalAlign=middle;whiteSpace=wrap;rounded=0;" vertex="1" parent="i1HpS0fMFRLG9WeGAnzn-213">
          <mxGeometry x="45" y="200" width="60" height="30" as="geometry" />
        </mxCell>
        <mxCell id="i1HpS0fMFRLG9WeGAnzn-223" value="" style="swimlane;startSize=0;fillColor=#f8cecc;strokeColor=#b85450;" vertex="1" parent="1">
          <mxGeometry x="980" y="510" width="280" height="280" as="geometry" />
        </mxCell>
        <mxCell id="i1HpS0fMFRLG9WeGAnzn-224" value="" style="swimlane;startSize=0;fillColor=#f8cecc;strokeColor=#b85450;" vertex="1" parent="i1HpS0fMFRLG9WeGAnzn-223">
          <mxGeometry width="80" height="60" as="geometry" />
        </mxCell>
        <mxCell id="i1HpS0fMFRLG9WeGAnzn-225" value="Create/Edit&amp;nbsp;&lt;br&gt;Department&lt;br&gt;Menu (Admin)" style="text;html=1;strokeColor=none;fillColor=none;align=center;verticalAlign=middle;whiteSpace=wrap;rounded=0;" vertex="1" parent="i1HpS0fMFRLG9WeGAnzn-224">
          <mxGeometry x="10" y="15" width="60" height="30" as="geometry" />
        </mxCell>
        <mxCell id="i1HpS0fMFRLG9WeGAnzn-226" value="Create&lt;br&gt;Department" style="text;html=1;strokeColor=none;fillColor=none;align=center;verticalAlign=middle;whiteSpace=wrap;rounded=0;" vertex="1" parent="i1HpS0fMFRLG9WeGAnzn-223">
          <mxGeometry x="45" y="115" width="60" height="30" as="geometry" />
        </mxCell>
        <mxCell id="i1HpS0fMFRLG9WeGAnzn-227" value="Edit Department" style="text;html=1;strokeColor=none;fillColor=none;align=center;verticalAlign=middle;whiteSpace=wrap;rounded=0;" vertex="1" parent="i1HpS0fMFRLG9WeGAnzn-223">
          <mxGeometry x="175" y="115" width="60" height="30" as="geometry" />
        </mxCell>
        <mxCell id="i1HpS0fMFRLG9WeGAnzn-228" value="Return to Previous Page" style="text;html=1;strokeColor=none;fillColor=none;align=center;verticalAlign=middle;whiteSpace=wrap;rounded=0;" vertex="1" parent="i1HpS0fMFRLG9WeGAnzn-223">
          <mxGeometry x="170" y="15" width="60" height="30" as="geometry" />
        </mxCell>
        <mxCell id="i1HpS0fMFRLG9WeGAnzn-229" value="Logging out" style="text;html=1;strokeColor=none;fillColor=none;align=center;verticalAlign=middle;whiteSpace=wrap;rounded=0;" vertex="1" parent="i1HpS0fMFRLG9WeGAnzn-223">
          <mxGeometry x="170" y="205" width="60" height="30" as="geometry" />
        </mxCell>
        <mxCell id="i1HpS0fMFRLG9WeGAnzn-230" value="Ref" style="shape=umlFrame;whiteSpace=wrap;html=1;pointerEvents=0;" vertex="1" parent="i1HpS0fMFRLG9WeGAnzn-223">
          <mxGeometry x="20" y="80" width="110" height="80" as="geometry" />
        </mxCell>
        <mxCell id="i1HpS0fMFRLG9WeGAnzn-231" value="Ref" style="shape=umlFrame;whiteSpace=wrap;html=1;pointerEvents=0;" vertex="1" parent="i1HpS0fMFRLG9WeGAnzn-223">
          <mxGeometry x="150" y="80" width="110" height="80" as="geometry" />
        </mxCell>
        <mxCell id="i1HpS0fMFRLG9WeGAnzn-232" value="Return to Main Page" style="text;html=1;strokeColor=none;fillColor=none;align=center;verticalAlign=middle;whiteSpace=wrap;rounded=0;" vertex="1" parent="i1HpS0fMFRLG9WeGAnzn-223">
          <mxGeometry x="45" y="200" width="60" height="30" as="geometry" />
        </mxCell>
        <mxCell id="i1HpS0fMFRLG9WeGAnzn-233" value="" style="swimlane;startSize=0;fillColor=#f8cecc;strokeColor=#b85450;" vertex="1" parent="1">
          <mxGeometry x="980" y="830" width="280" height="280" as="geometry" />
        </mxCell>
        <mxCell id="i1HpS0fMFRLG9WeGAnzn-234" value="" style="swimlane;startSize=0;fillColor=#f8cecc;strokeColor=#b85450;" vertex="1" parent="i1HpS0fMFRLG9WeGAnzn-233">
          <mxGeometry width="80" height="60" as="geometry" />
        </mxCell>
        <mxCell id="i1HpS0fMFRLG9WeGAnzn-235" value="System&lt;br&gt;Management&amp;nbsp;&lt;br&gt;Menu&lt;br&gt;(Admin)" style="text;html=1;strokeColor=none;fillColor=none;align=center;verticalAlign=middle;whiteSpace=wrap;rounded=0;" vertex="1" parent="i1HpS0fMFRLG9WeGAnzn-234">
          <mxGeometry x="10" y="15" width="60" height="30" as="geometry" />
        </mxCell>
        <mxCell id="i1HpS0fMFRLG9WeGAnzn-238" value="Check&lt;br&gt;Task Manager Status" style="text;html=1;strokeColor=none;fillColor=none;align=center;verticalAlign=middle;whiteSpace=wrap;rounded=0;" vertex="1" parent="i1HpS0fMFRLG9WeGAnzn-233">
          <mxGeometry x="35" y="220" width="80" height="30" as="geometry" />
        </mxCell>
        <mxCell id="i1HpS0fMFRLG9WeGAnzn-240" value="Check&lt;br&gt;Data Base Status" style="text;html=1;strokeColor=none;fillColor=none;align=center;verticalAlign=middle;whiteSpace=wrap;rounded=0;" vertex="1" parent="i1HpS0fMFRLG9WeGAnzn-233">
          <mxGeometry x="45" y="120" width="60" height="30" as="geometry" />
        </mxCell>
        <mxCell id="i1HpS0fMFRLG9WeGAnzn-241" value="Check&lt;br&gt;Server Status" style="text;html=1;strokeColor=none;fillColor=none;align=center;verticalAlign=middle;whiteSpace=wrap;rounded=0;" vertex="1" parent="i1HpS0fMFRLG9WeGAnzn-233">
          <mxGeometry x="175" y="120" width="60" height="30" as="geometry" />
        </mxCell>
        <mxCell id="i1HpS0fMFRLG9WeGAnzn-243" value="Ref" style="shape=umlFrame;whiteSpace=wrap;html=1;pointerEvents=0;" vertex="1" parent="i1HpS0fMFRLG9WeGAnzn-233">
          <mxGeometry x="20" y="80" width="110" height="80" as="geometry" />
        </mxCell>
        <mxCell id="i1HpS0fMFRLG9WeGAnzn-244" value="Ref" style="shape=umlFrame;whiteSpace=wrap;html=1;pointerEvents=0;" vertex="1" parent="i1HpS0fMFRLG9WeGAnzn-233">
          <mxGeometry x="150" y="80" width="110" height="80" as="geometry" />
        </mxCell>
        <mxCell id="i1HpS0fMFRLG9WeGAnzn-245" value="Ref" style="shape=umlFrame;whiteSpace=wrap;html=1;pointerEvents=0;" vertex="1" parent="i1HpS0fMFRLG9WeGAnzn-233">
          <mxGeometry x="20" y="180" width="110" height="80" as="geometry" />
        </mxCell>
        <mxCell id="i1HpS0fMFRLG9WeGAnzn-242" value="Return to Previous Page" style="text;html=1;strokeColor=none;fillColor=none;align=center;verticalAlign=middle;whiteSpace=wrap;rounded=0;" vertex="1" parent="i1HpS0fMFRLG9WeGAnzn-233">
          <mxGeometry x="175" y="15" width="60" height="30" as="geometry" />
        </mxCell>
        <mxCell id="i1HpS0fMFRLG9WeGAnzn-239" value="Logging out" style="text;html=1;strokeColor=none;fillColor=none;align=center;verticalAlign=middle;whiteSpace=wrap;rounded=0;" vertex="1" parent="i1HpS0fMFRLG9WeGAnzn-233">
          <mxGeometry x="170" y="205" width="60" height="30" as="geometry" />
        </mxCell>
        <mxCell id="i1HpS0fMFRLG9WeGAnzn-246" value="" style="swimlane;startSize=0;fillColor=#d5e8d4;strokeColor=#82b366;" vertex="1" parent="1">
          <mxGeometry x="580" y="19" width="350" height="120" as="geometry" />
        </mxCell>
        <mxCell id="i1HpS0fMFRLG9WeGAnzn-247" value="" style="swimlane;startSize=0;fillColor=#d5e8d4;strokeColor=#82b366;" vertex="1" parent="i1HpS0fMFRLG9WeGAnzn-246">
          <mxGeometry width="80" height="60" as="geometry" />
        </mxCell>
        <mxCell id="i1HpS0fMFRLG9WeGAnzn-248" value="Upload Data Menu (Data&lt;br&gt;Producer)" style="text;html=1;strokeColor=none;fillColor=none;align=center;verticalAlign=middle;whiteSpace=wrap;rounded=0;" vertex="1" parent="i1HpS0fMFRLG9WeGAnzn-247">
          <mxGeometry x="5" y="15" width="70" height="35" as="geometry" />
        </mxCell>
        <mxCell id="i1HpS0fMFRLG9WeGAnzn-249" value="Upload File" style="text;html=1;strokeColor=none;fillColor=none;align=center;verticalAlign=middle;whiteSpace=wrap;rounded=0;" vertex="1" parent="i1HpS0fMFRLG9WeGAnzn-246">
          <mxGeometry x="125" y="60" width="60" height="30" as="geometry" />
        </mxCell>
        <mxCell id="i1HpS0fMFRLG9WeGAnzn-252" value="Logging out" style="text;html=1;strokeColor=none;fillColor=none;align=center;verticalAlign=middle;whiteSpace=wrap;rounded=0;" vertex="1" parent="i1HpS0fMFRLG9WeGAnzn-246">
          <mxGeometry x="250" y="71" width="60" height="30" as="geometry" />
        </mxCell>
        <mxCell id="i1HpS0fMFRLG9WeGAnzn-253" value="Return to Previous Page" style="text;html=1;strokeColor=none;fillColor=none;align=center;verticalAlign=middle;whiteSpace=wrap;rounded=0;" vertex="1" parent="i1HpS0fMFRLG9WeGAnzn-246">
          <mxGeometry x="250" y="21" width="60" height="30" as="geometry" />
        </mxCell>
        <mxCell id="i1HpS0fMFRLG9WeGAnzn-254" value="Ref" style="shape=umlFrame;whiteSpace=wrap;html=1;pointerEvents=0;" vertex="1" parent="i1HpS0fMFRLG9WeGAnzn-246">
          <mxGeometry x="100" y="21" width="110" height="80" as="geometry" />
        </mxCell>
        <mxCell id="i1HpS0fMFRLG9WeGAnzn-255" value="" style="swimlane;startSize=0;fillColor=#b0e3e6;strokeColor=#0e8088;" vertex="1" parent="1">
          <mxGeometry x="970" y="10" width="160" height="140" as="geometry" />
        </mxCell>
        <mxCell id="i1HpS0fMFRLG9WeGAnzn-256" value="" style="swimlane;startSize=0;fillColor=#b0e3e6;strokeColor=#0e8088;" vertex="1" parent="i1HpS0fMFRLG9WeGAnzn-255">
          <mxGeometry width="80" height="60" as="geometry" />
        </mxCell>
        <mxCell id="i1HpS0fMFRLG9WeGAnzn-257" value="Orders Processing&lt;br&gt;Menu (D.P. / Editor)" style="text;html=1;strokeColor=none;fillColor=none;align=center;verticalAlign=middle;whiteSpace=wrap;rounded=0;" vertex="1" parent="i1HpS0fMFRLG9WeGAnzn-256">
          <mxGeometry x="5" y="12.5" width="70" height="35" as="geometry" />
        </mxCell>
        <mxCell id="i1HpS0fMFRLG9WeGAnzn-259" value="Open&amp;nbsp;&lt;br&gt;Detailed Order View&lt;br&gt;Menu" style="text;html=1;strokeColor=none;fillColor=none;align=center;verticalAlign=middle;whiteSpace=wrap;rounded=0;" vertex="1" parent="i1HpS0fMFRLG9WeGAnzn-255">
          <mxGeometry x="10" y="85.5" width="70" height="34.5" as="geometry" />
        </mxCell>
        <mxCell id="i1HpS0fMFRLG9WeGAnzn-261" value="Logging out" style="text;html=1;strokeColor=none;fillColor=none;align=center;verticalAlign=middle;whiteSpace=wrap;rounded=0;" vertex="1" parent="i1HpS0fMFRLG9WeGAnzn-255">
          <mxGeometry x="90" y="90" width="60" height="30" as="geometry" />
        </mxCell>
        <mxCell id="i1HpS0fMFRLG9WeGAnzn-262" value="Return to Previous Page" style="text;html=1;strokeColor=none;fillColor=none;align=center;verticalAlign=middle;whiteSpace=wrap;rounded=0;" vertex="1" parent="i1HpS0fMFRLG9WeGAnzn-255">
          <mxGeometry x="90" y="25.5" width="60" height="30" as="geometry" />
        </mxCell>
        <mxCell id="i1HpS0fMFRLG9WeGAnzn-263" value="" style="swimlane;startSize=0;fillColor=#b0e3e6;strokeColor=#0e8088;" vertex="1" parent="1">
          <mxGeometry x="1160" y="10" width="820" height="140" as="geometry" />
        </mxCell>
        <mxCell id="i1HpS0fMFRLG9WeGAnzn-264" value="" style="swimlane;startSize=0;fillColor=#b0e3e6;strokeColor=#0e8088;" vertex="1" parent="i1HpS0fMFRLG9WeGAnzn-263">
          <mxGeometry width="80" height="60" as="geometry" />
        </mxCell>
        <mxCell id="i1HpS0fMFRLG9WeGAnzn-265" value="Detailed Order View&lt;br&gt;Menu (D. P. / Editor)" style="text;html=1;strokeColor=none;fillColor=none;align=center;verticalAlign=middle;whiteSpace=wrap;rounded=0;" vertex="1" parent="i1HpS0fMFRLG9WeGAnzn-264">
          <mxGeometry x="5" y="12.5" width="70" height="35" as="geometry" />
        </mxCell>
        <mxCell id="i1HpS0fMFRLG9WeGAnzn-266" value="Send Order" style="text;html=1;strokeColor=none;fillColor=none;align=center;verticalAlign=middle;whiteSpace=wrap;rounded=0;" vertex="1" parent="i1HpS0fMFRLG9WeGAnzn-263">
          <mxGeometry x="120" y="55.5" width="70" height="34.5" as="geometry" />
        </mxCell>
        <mxCell id="i1HpS0fMFRLG9WeGAnzn-270" value="Ref" style="shape=umlFrame;whiteSpace=wrap;html=1;pointerEvents=0;" vertex="1" parent="i1HpS0fMFRLG9WeGAnzn-263">
          <mxGeometry x="100" y="20" width="110" height="80" as="geometry" />
        </mxCell>
        <mxCell id="i1HpS0fMFRLG9WeGAnzn-267" value="Logging out" style="text;html=1;strokeColor=none;fillColor=none;align=center;verticalAlign=middle;whiteSpace=wrap;rounded=0;" vertex="1" parent="i1HpS0fMFRLG9WeGAnzn-263">
          <mxGeometry x="620" y="21" width="60" height="30" as="geometry" />
        </mxCell>
        <mxCell id="i1HpS0fMFRLG9WeGAnzn-272" value="Challenge Order" style="text;html=1;strokeColor=none;fillColor=none;align=center;verticalAlign=middle;whiteSpace=wrap;rounded=0;" vertex="1" parent="i1HpS0fMFRLG9WeGAnzn-263">
          <mxGeometry x="250" y="55.5" width="70" height="34.5" as="geometry" />
        </mxCell>
        <mxCell id="i1HpS0fMFRLG9WeGAnzn-273" value="Ref" style="shape=umlFrame;whiteSpace=wrap;html=1;pointerEvents=0;" vertex="1" parent="i1HpS0fMFRLG9WeGAnzn-263">
          <mxGeometry x="230" y="21" width="110" height="80" as="geometry" />
        </mxCell>
        <mxCell id="i1HpS0fMFRLG9WeGAnzn-271" value="Open View/Edit Document Menu" style="text;html=1;strokeColor=none;fillColor=none;align=center;verticalAlign=middle;whiteSpace=wrap;rounded=0;" vertex="1" parent="i1HpS0fMFRLG9WeGAnzn-263">
          <mxGeometry x="720" y="21" width="90" height="34.5" as="geometry" />
        </mxCell>
        <mxCell id="i1HpS0fMFRLG9WeGAnzn-269" value="Return to Main Page" style="text;html=1;strokeColor=none;fillColor=none;align=center;verticalAlign=middle;whiteSpace=wrap;rounded=0;" vertex="1" parent="i1HpS0fMFRLG9WeGAnzn-263">
          <mxGeometry x="620" y="75.5" width="60" height="30" as="geometry" />
        </mxCell>
        <mxCell id="i1HpS0fMFRLG9WeGAnzn-268" value="Return to Previous Page" style="text;html=1;strokeColor=none;fillColor=none;align=center;verticalAlign=middle;whiteSpace=wrap;rounded=0;" vertex="1" parent="i1HpS0fMFRLG9WeGAnzn-263">
          <mxGeometry x="730" y="75.5" width="60" height="30" as="geometry" />
        </mxCell>
        <mxCell id="i1HpS0fMFRLG9WeGAnzn-293" value="Verify Order" style="text;html=1;strokeColor=none;fillColor=none;align=center;verticalAlign=middle;whiteSpace=wrap;rounded=0;" vertex="1" parent="i1HpS0fMFRLG9WeGAnzn-263">
          <mxGeometry x="380" y="56.5" width="70" height="34.5" as="geometry" />
        </mxCell>
        <mxCell id="i1HpS0fMFRLG9WeGAnzn-294" value="Ref" style="shape=umlFrame;whiteSpace=wrap;html=1;pointerEvents=0;" vertex="1" parent="i1HpS0fMFRLG9WeGAnzn-263">
          <mxGeometry x="360" y="21" width="110" height="80" as="geometry" />
        </mxCell>
        <mxCell id="i1HpS0fMFRLG9WeGAnzn-295" value="Edit Description" style="text;html=1;strokeColor=none;fillColor=none;align=center;verticalAlign=middle;whiteSpace=wrap;rounded=0;" vertex="1" parent="i1HpS0fMFRLG9WeGAnzn-263">
          <mxGeometry x="510" y="56.5" width="70" height="34.5" as="geometry" />
        </mxCell>
        <mxCell id="i1HpS0fMFRLG9WeGAnzn-296" value="Ref" style="shape=umlFrame;whiteSpace=wrap;html=1;pointerEvents=0;" vertex="1" parent="i1HpS0fMFRLG9WeGAnzn-263">
          <mxGeometry x="490" y="21" width="110" height="80" as="geometry" />
        </mxCell>
        <mxCell id="i1HpS0fMFRLG9WeGAnzn-274" value="" style="swimlane;startSize=0;fillColor=#b0e3e6;strokeColor=#0e8088;" vertex="1" parent="1">
          <mxGeometry x="1300" y="190" width="320" height="220" as="geometry" />
        </mxCell>
        <mxCell id="i1HpS0fMFRLG9WeGAnzn-275" value="" style="swimlane;startSize=0;fillColor=#b0e3e6;strokeColor=#0e8088;" vertex="1" parent="i1HpS0fMFRLG9WeGAnzn-274">
          <mxGeometry width="80" height="60" as="geometry" />
        </mxCell>
        <mxCell id="i1HpS0fMFRLG9WeGAnzn-276" value="View/Edit&lt;br&gt;Document Menu (D.P./Editor)" style="text;html=1;strokeColor=none;fillColor=none;align=center;verticalAlign=middle;whiteSpace=wrap;rounded=0;" vertex="1" parent="i1HpS0fMFRLG9WeGAnzn-275">
          <mxGeometry x="5" y="12.5" width="70" height="35" as="geometry" />
        </mxCell>
        <mxCell id="i1HpS0fMFRLG9WeGAnzn-281" value="Ref" style="shape=umlFrame;whiteSpace=wrap;html=1;pointerEvents=0;" vertex="1" parent="i1HpS0fMFRLG9WeGAnzn-274">
          <mxGeometry x="100" y="20" width="110" height="80" as="geometry" />
        </mxCell>
        <mxCell id="i1HpS0fMFRLG9WeGAnzn-277" value="View Document" style="text;html=1;strokeColor=none;fillColor=none;align=center;verticalAlign=middle;whiteSpace=wrap;rounded=0;" vertex="1" parent="i1HpS0fMFRLG9WeGAnzn-274">
          <mxGeometry x="120" y="50" width="70" height="34.5" as="geometry" />
        </mxCell>
        <mxCell id="i1HpS0fMFRLG9WeGAnzn-278" value="Logging out" style="text;html=1;strokeColor=none;fillColor=none;align=center;verticalAlign=middle;whiteSpace=wrap;rounded=0;" vertex="1" parent="i1HpS0fMFRLG9WeGAnzn-274">
          <mxGeometry x="20" y="149" width="60" height="30" as="geometry" />
        </mxCell>
        <mxCell id="i1HpS0fMFRLG9WeGAnzn-279" value="Return to Previous Page" style="text;html=1;strokeColor=none;fillColor=none;align=center;verticalAlign=middle;whiteSpace=wrap;rounded=0;" vertex="1" parent="i1HpS0fMFRLG9WeGAnzn-274">
          <mxGeometry x="20" y="84.5" width="60" height="30" as="geometry" />
        </mxCell>
        <mxCell id="i1HpS0fMFRLG9WeGAnzn-282" value="Ref" style="shape=umlFrame;whiteSpace=wrap;html=1;pointerEvents=0;" vertex="1" parent="i1HpS0fMFRLG9WeGAnzn-274">
          <mxGeometry x="100" y="124" width="110" height="80" as="geometry" />
        </mxCell>
        <mxCell id="i1HpS0fMFRLG9WeGAnzn-283" value="Edit Document" style="text;html=1;strokeColor=none;fillColor=none;align=center;verticalAlign=middle;whiteSpace=wrap;rounded=0;" vertex="1" parent="i1HpS0fMFRLG9WeGAnzn-274">
          <mxGeometry x="120" y="154" width="70" height="34.5" as="geometry" />
        </mxCell>
        <mxCell id="i1HpS0fMFRLG9WeGAnzn-280" value="Return to Main Page" style="text;html=1;strokeColor=none;fillColor=none;align=center;verticalAlign=middle;whiteSpace=wrap;rounded=0;" vertex="1" parent="i1HpS0fMFRLG9WeGAnzn-274">
          <mxGeometry x="240" y="40" width="60" height="40" as="geometry" />
        </mxCell>
        <mxCell id="i1HpS0fMFRLG9WeGAnzn-297" value="" style="swimlane;startSize=0;fillColor=#0050ef;fontColor=#ffffff;strokeColor=#001DBC;" vertex="1" parent="1">
          <mxGeometry x="1300" y="440" width="280" height="150" as="geometry" />
        </mxCell>
        <mxCell id="i1HpS0fMFRLG9WeGAnzn-298" value="" style="swimlane;startSize=0;fillColor=#0050ef;fontColor=#ffffff;strokeColor=#001DBC;" vertex="1" parent="i1HpS0fMFRLG9WeGAnzn-297">
          <mxGeometry width="80" height="60" as="geometry" />
        </mxCell>
        <mxCell id="i1HpS0fMFRLG9WeGAnzn-299" value="Limits Management Menu(Editor)" style="text;html=1;strokeColor=none;fillColor=none;align=center;verticalAlign=middle;whiteSpace=wrap;rounded=0;" vertex="1" parent="i1HpS0fMFRLG9WeGAnzn-298">
          <mxGeometry x="10" y="15" width="60" height="30" as="geometry" />
        </mxCell>
        <mxCell id="i1HpS0fMFRLG9WeGAnzn-300" value="Open&amp;nbsp;&lt;br&gt;Edit Limits&lt;br&gt;Menu" style="text;html=1;strokeColor=none;fillColor=none;align=center;verticalAlign=middle;whiteSpace=wrap;rounded=0;" vertex="1" parent="i1HpS0fMFRLG9WeGAnzn-297">
          <mxGeometry x="20" y="90" width="60" height="30" as="geometry" />
        </mxCell>
        <mxCell id="i1HpS0fMFRLG9WeGAnzn-302" value="Open&amp;nbsp;&lt;br&gt;Identify Limits Menu" style="text;html=1;strokeColor=none;fillColor=none;align=center;verticalAlign=middle;whiteSpace=wrap;rounded=0;" vertex="1" parent="i1HpS0fMFRLG9WeGAnzn-297">
          <mxGeometry x="105" y="20" width="70" height="30" as="geometry" />
        </mxCell>
        <mxCell id="i1HpS0fMFRLG9WeGAnzn-303" value="Logging out" style="text;html=1;strokeColor=none;fillColor=none;align=center;verticalAlign=middle;whiteSpace=wrap;rounded=0;" vertex="1" parent="i1HpS0fMFRLG9WeGAnzn-297">
          <mxGeometry x="200" y="90" width="60" height="30" as="geometry" />
        </mxCell>
        <mxCell id="i1HpS0fMFRLG9WeGAnzn-304" value="Return to Previous Page" style="text;html=1;strokeColor=none;fillColor=none;align=center;verticalAlign=middle;whiteSpace=wrap;rounded=0;" vertex="1" parent="i1HpS0fMFRLG9WeGAnzn-297">
          <mxGeometry x="105" y="90" width="60" height="30" as="geometry" />
        </mxCell>
        <mxCell id="i1HpS0fMFRLG9WeGAnzn-305" value="" style="swimlane;startSize=0;fillColor=#0050ef;fontColor=#ffffff;strokeColor=#001DBC;" vertex="1" parent="1">
          <mxGeometry x="1300" y="630" width="280" height="150" as="geometry" />
        </mxCell>
        <mxCell id="i1HpS0fMFRLG9WeGAnzn-306" value="" style="swimlane;startSize=0;fillColor=#0050ef;fontColor=#ffffff;strokeColor=#001DBC;" vertex="1" parent="i1HpS0fMFRLG9WeGAnzn-305">
          <mxGeometry width="80" height="60" as="geometry" />
        </mxCell>
        <mxCell id="i1HpS0fMFRLG9WeGAnzn-307" value="Edit Limits Menu(Editor)" style="text;html=1;strokeColor=none;fillColor=none;align=center;verticalAlign=middle;whiteSpace=wrap;rounded=0;" vertex="1" parent="i1HpS0fMFRLG9WeGAnzn-306">
          <mxGeometry x="10" y="15" width="60" height="30" as="geometry" />
        </mxCell>
        <mxCell id="i1HpS0fMFRLG9WeGAnzn-308" value="Open&amp;nbsp;&lt;br&gt;Positions List&lt;br&gt;Menu" style="text;html=1;strokeColor=none;fillColor=none;align=center;verticalAlign=middle;whiteSpace=wrap;rounded=0;" vertex="1" parent="i1HpS0fMFRLG9WeGAnzn-305">
          <mxGeometry x="10" y="90" width="80" height="30" as="geometry" />
        </mxCell>
        <mxCell id="i1HpS0fMFRLG9WeGAnzn-310" value="Logging out" style="text;html=1;strokeColor=none;fillColor=none;align=center;verticalAlign=middle;whiteSpace=wrap;rounded=0;" vertex="1" parent="i1HpS0fMFRLG9WeGAnzn-305">
          <mxGeometry x="200" y="90" width="60" height="30" as="geometry" />
        </mxCell>
        <mxCell id="i1HpS0fMFRLG9WeGAnzn-311" value="Return to Previous Page" style="text;html=1;strokeColor=none;fillColor=none;align=center;verticalAlign=middle;whiteSpace=wrap;rounded=0;" vertex="1" parent="i1HpS0fMFRLG9WeGAnzn-305">
          <mxGeometry x="105" y="90" width="60" height="30" as="geometry" />
        </mxCell>
        <mxCell id="i1HpS0fMFRLG9WeGAnzn-312" value="Return to Main Page" style="text;html=1;strokeColor=none;fillColor=none;align=center;verticalAlign=middle;whiteSpace=wrap;rounded=0;" vertex="1" parent="i1HpS0fMFRLG9WeGAnzn-305">
          <mxGeometry x="105" y="10" width="60" height="40" as="geometry" />
        </mxCell>
        <mxCell id="i1HpS0fMFRLG9WeGAnzn-320" value="" style="swimlane;startSize=0;fillColor=#0050ef;fontColor=#ffffff;strokeColor=#001DBC;" vertex="1" parent="1">
          <mxGeometry x="1300" y="820" width="200" height="200" as="geometry" />
        </mxCell>
        <mxCell id="i1HpS0fMFRLG9WeGAnzn-321" value="" style="swimlane;startSize=0;fillColor=#0050ef;fontColor=#ffffff;strokeColor=#001DBC;" vertex="1" parent="i1HpS0fMFRLG9WeGAnzn-320">
          <mxGeometry width="80" height="60" as="geometry" />
        </mxCell>
        <mxCell id="i1HpS0fMFRLG9WeGAnzn-322" value="Positions&lt;br&gt;List Menu&lt;br&gt;(Editor)" style="text;html=1;strokeColor=none;fillColor=none;align=center;verticalAlign=middle;whiteSpace=wrap;rounded=0;" vertex="1" parent="i1HpS0fMFRLG9WeGAnzn-321">
          <mxGeometry x="10" y="15" width="60" height="30" as="geometry" />
        </mxCell>
        <mxCell id="i1HpS0fMFRLG9WeGAnzn-323" value="Open&amp;nbsp;&lt;br&gt;Detailed Position Info Menu" style="text;html=1;strokeColor=none;fillColor=none;align=center;verticalAlign=middle;whiteSpace=wrap;rounded=0;" vertex="1" parent="i1HpS0fMFRLG9WeGAnzn-320">
          <mxGeometry x="10" y="140" width="105" height="30" as="geometry" />
        </mxCell>
        <mxCell id="i1HpS0fMFRLG9WeGAnzn-329" value="Open&amp;nbsp;&lt;br&gt;Position Info&lt;br&gt;&amp;nbsp;Menu" style="text;html=1;strokeColor=none;fillColor=none;align=center;verticalAlign=middle;whiteSpace=wrap;rounded=0;" vertex="1" parent="i1HpS0fMFRLG9WeGAnzn-320">
          <mxGeometry x="10" y="90" width="105" height="20" as="geometry" />
        </mxCell>
        <mxCell id="i1HpS0fMFRLG9WeGAnzn-326" value="Return to Main Page" style="text;html=1;strokeColor=none;fillColor=none;align=center;verticalAlign=middle;whiteSpace=wrap;rounded=0;" vertex="1" parent="i1HpS0fMFRLG9WeGAnzn-320">
          <mxGeometry x="120" y="20" width="60" height="40" as="geometry" />
        </mxCell>
        <mxCell id="i1HpS0fMFRLG9WeGAnzn-325" value="Return to Previous Page" style="text;html=1;strokeColor=none;fillColor=none;align=center;verticalAlign=middle;whiteSpace=wrap;rounded=0;" vertex="1" parent="i1HpS0fMFRLG9WeGAnzn-320">
          <mxGeometry x="120" y="90" width="60" height="30" as="geometry" />
        </mxCell>
        <mxCell id="i1HpS0fMFRLG9WeGAnzn-324" value="Logging out" style="text;html=1;strokeColor=none;fillColor=none;align=center;verticalAlign=middle;whiteSpace=wrap;rounded=0;" vertex="1" parent="i1HpS0fMFRLG9WeGAnzn-320">
          <mxGeometry x="120" y="140" width="60" height="30" as="geometry" />
        </mxCell>
        <mxCell id="i1HpS0fMFRLG9WeGAnzn-330" value="" style="swimlane;startSize=0;fillColor=#0050ef;fontColor=#ffffff;strokeColor=#001DBC;" vertex="1" parent="1">
          <mxGeometry x="1660" y="190" width="200" height="200" as="geometry" />
        </mxCell>
        <mxCell id="i1HpS0fMFRLG9WeGAnzn-331" value="" style="swimlane;startSize=0;fillColor=#0050ef;fontColor=#ffffff;strokeColor=#001DBC;" vertex="1" parent="i1HpS0fMFRLG9WeGAnzn-330">
          <mxGeometry width="80" height="60" as="geometry" />
        </mxCell>
        <mxCell id="i1HpS0fMFRLG9WeGAnzn-332" value="Position&lt;br&gt;Info Menu&lt;br&gt;(Editor)" style="text;html=1;strokeColor=none;fillColor=none;align=center;verticalAlign=middle;whiteSpace=wrap;rounded=0;" vertex="1" parent="i1HpS0fMFRLG9WeGAnzn-331">
          <mxGeometry x="10" y="15" width="60" height="30" as="geometry" />
        </mxCell>
        <mxCell id="i1HpS0fMFRLG9WeGAnzn-333" value="Open&amp;nbsp;&lt;br&gt;Detailed Position Info Menu" style="text;html=1;strokeColor=none;fillColor=none;align=center;verticalAlign=middle;whiteSpace=wrap;rounded=0;" vertex="1" parent="i1HpS0fMFRLG9WeGAnzn-330">
          <mxGeometry x="10" y="85" width="105" height="30" as="geometry" />
        </mxCell>
        <mxCell id="i1HpS0fMFRLG9WeGAnzn-336" value="Return to Previous Page" style="text;html=1;strokeColor=none;fillColor=none;align=center;verticalAlign=middle;whiteSpace=wrap;rounded=0;" vertex="1" parent="i1HpS0fMFRLG9WeGAnzn-330">
          <mxGeometry x="120" y="90" width="60" height="30" as="geometry" />
        </mxCell>
        <mxCell id="i1HpS0fMFRLG9WeGAnzn-337" value="Logging out" style="text;html=1;strokeColor=none;fillColor=none;align=center;verticalAlign=middle;whiteSpace=wrap;rounded=0;" vertex="1" parent="i1HpS0fMFRLG9WeGAnzn-330">
          <mxGeometry x="120" y="140" width="60" height="30" as="geometry" />
        </mxCell>
        <mxCell id="i1HpS0fMFRLG9WeGAnzn-342" value="Return to Main Page" style="text;html=1;strokeColor=none;fillColor=none;align=center;verticalAlign=middle;whiteSpace=wrap;rounded=0;" vertex="1" parent="i1HpS0fMFRLG9WeGAnzn-330">
          <mxGeometry x="115" y="20" width="60" height="40" as="geometry" />
        </mxCell>
        <mxCell id="i1HpS0fMFRLG9WeGAnzn-338" value="" style="swimlane;startSize=0;fillColor=#0050ef;fontColor=#ffffff;strokeColor=#001DBC;" vertex="1" parent="1">
          <mxGeometry x="1660" y="430" width="470" height="180" as="geometry" />
        </mxCell>
        <mxCell id="i1HpS0fMFRLG9WeGAnzn-339" value="" style="swimlane;startSize=0;fillColor=#0050ef;fontColor=#ffffff;strokeColor=#001DBC;" vertex="1" parent="i1HpS0fMFRLG9WeGAnzn-338">
          <mxGeometry width="80" height="60" as="geometry" />
        </mxCell>
        <mxCell id="i1HpS0fMFRLG9WeGAnzn-340" value="Detailed Position&lt;br&gt;Info Menu&lt;br&gt;(Editor)" style="text;html=1;strokeColor=none;fillColor=none;align=center;verticalAlign=middle;whiteSpace=wrap;rounded=0;" vertex="1" parent="i1HpS0fMFRLG9WeGAnzn-339">
          <mxGeometry x="10" y="15" width="60" height="30" as="geometry" />
        </mxCell>
        <mxCell id="i1HpS0fMFRLG9WeGAnzn-341" value="Edit Attributes" style="text;html=1;strokeColor=none;fillColor=none;align=center;verticalAlign=middle;whiteSpace=wrap;rounded=0;" vertex="1" parent="i1HpS0fMFRLG9WeGAnzn-338">
          <mxGeometry x="25" y="120" width="105" height="30" as="geometry" />
        </mxCell>
        <mxCell id="i1HpS0fMFRLG9WeGAnzn-345" value="Ref" style="shape=umlFrame;whiteSpace=wrap;html=1;pointerEvents=0;" vertex="1" parent="i1HpS0fMFRLG9WeGAnzn-338">
          <mxGeometry x="20" y="80" width="110" height="80" as="geometry" />
        </mxCell>
        <mxCell id="i1HpS0fMFRLG9WeGAnzn-346" value="Open&lt;br&gt;Position Stat&lt;br&gt;Menu" style="text;html=1;strokeColor=none;fillColor=none;align=center;verticalAlign=middle;whiteSpace=wrap;rounded=0;" vertex="1" parent="i1HpS0fMFRLG9WeGAnzn-338">
          <mxGeometry x="160" y="20" width="105" height="30" as="geometry" />
        </mxCell>
        <mxCell id="i1HpS0fMFRLG9WeGAnzn-347" value="Open&lt;br&gt;Create/Edit Limit&lt;br&gt;Menu" style="text;html=1;strokeColor=none;fillColor=none;align=center;verticalAlign=middle;whiteSpace=wrap;rounded=0;" vertex="1" parent="i1HpS0fMFRLG9WeGAnzn-338">
          <mxGeometry x="360" y="7.5" width="105" height="55" as="geometry" />
        </mxCell>
        <mxCell id="i1HpS0fMFRLG9WeGAnzn-335" value="Return to Main Page" style="text;html=1;strokeColor=none;fillColor=none;align=center;verticalAlign=middle;whiteSpace=wrap;rounded=0;" vertex="1" parent="i1HpS0fMFRLG9WeGAnzn-338">
          <mxGeometry x="290" y="10" width="60" height="40" as="geometry" />
        </mxCell>
        <mxCell id="i1HpS0fMFRLG9WeGAnzn-343" value="Return to Previous Page" style="text;html=1;strokeColor=none;fillColor=none;align=center;verticalAlign=middle;whiteSpace=wrap;rounded=0;" vertex="1" parent="i1HpS0fMFRLG9WeGAnzn-338">
          <mxGeometry x="290" y="105" width="60" height="30" as="geometry" />
        </mxCell>
        <mxCell id="i1HpS0fMFRLG9WeGAnzn-344" value="Logging out" style="text;html=1;strokeColor=none;fillColor=none;align=center;verticalAlign=middle;whiteSpace=wrap;rounded=0;" vertex="1" parent="i1HpS0fMFRLG9WeGAnzn-338">
          <mxGeometry x="100" y="20" width="60" height="30" as="geometry" />
        </mxCell>
        <mxCell id="i1HpS0fMFRLG9WeGAnzn-358" value="Ref" style="shape=umlFrame;whiteSpace=wrap;html=1;pointerEvents=0;" vertex="1" parent="i1HpS0fMFRLG9WeGAnzn-338">
          <mxGeometry x="155" y="80" width="110" height="80" as="geometry" />
        </mxCell>
        <mxCell id="i1HpS0fMFRLG9WeGAnzn-359" value="Delete Limits" style="text;html=1;strokeColor=none;fillColor=none;align=center;verticalAlign=middle;whiteSpace=wrap;rounded=0;" vertex="1" parent="i1HpS0fMFRLG9WeGAnzn-338">
          <mxGeometry x="157.5" y="120" width="105" height="30" as="geometry" />
        </mxCell>
        <mxCell id="i1HpS0fMFRLG9WeGAnzn-348" value="" style="swimlane;startSize=0;fillColor=#0050ef;fontColor=#ffffff;strokeColor=#001DBC;" vertex="1" parent="1">
          <mxGeometry x="1620" y="645" width="380" height="180" as="geometry" />
        </mxCell>
        <mxCell id="i1HpS0fMFRLG9WeGAnzn-349" value="" style="swimlane;startSize=0;fillColor=#0050ef;fontColor=#ffffff;strokeColor=#001DBC;" vertex="1" parent="i1HpS0fMFRLG9WeGAnzn-348">
          <mxGeometry width="80" height="60" as="geometry" />
        </mxCell>
        <mxCell id="i1HpS0fMFRLG9WeGAnzn-350" value="Create/Edit&lt;br&gt;Limit Menu (Editor)" style="text;html=1;strokeColor=none;fillColor=none;align=center;verticalAlign=middle;whiteSpace=wrap;rounded=0;" vertex="1" parent="i1HpS0fMFRLG9WeGAnzn-349">
          <mxGeometry x="10" y="15" width="60" height="30" as="geometry" />
        </mxCell>
        <mxCell id="i1HpS0fMFRLG9WeGAnzn-351" value="Edit Limits" style="text;html=1;strokeColor=none;fillColor=none;align=center;verticalAlign=middle;whiteSpace=wrap;rounded=0;" vertex="1" parent="i1HpS0fMFRLG9WeGAnzn-348">
          <mxGeometry x="25" y="120" width="105" height="30" as="geometry" />
        </mxCell>
        <mxCell id="i1HpS0fMFRLG9WeGAnzn-352" value="Ref" style="shape=umlFrame;whiteSpace=wrap;html=1;pointerEvents=0;" vertex="1" parent="i1HpS0fMFRLG9WeGAnzn-348">
          <mxGeometry x="20" y="80" width="110" height="80" as="geometry" />
        </mxCell>
        <mxCell id="i1HpS0fMFRLG9WeGAnzn-355" value="Return to Main Page" style="text;html=1;strokeColor=none;fillColor=none;align=center;verticalAlign=middle;whiteSpace=wrap;rounded=0;" vertex="1" parent="i1HpS0fMFRLG9WeGAnzn-348">
          <mxGeometry x="200" y="10" width="60" height="40" as="geometry" />
        </mxCell>
        <mxCell id="i1HpS0fMFRLG9WeGAnzn-356" value="Return to Previous Page" style="text;html=1;strokeColor=none;fillColor=none;align=center;verticalAlign=middle;whiteSpace=wrap;rounded=0;" vertex="1" parent="i1HpS0fMFRLG9WeGAnzn-348">
          <mxGeometry x="292.5" y="20" width="60" height="30" as="geometry" />
        </mxCell>
        <mxCell id="i1HpS0fMFRLG9WeGAnzn-357" value="Logging out" style="text;html=1;strokeColor=none;fillColor=none;align=center;verticalAlign=middle;whiteSpace=wrap;rounded=0;" vertex="1" parent="i1HpS0fMFRLG9WeGAnzn-348">
          <mxGeometry x="100" y="20" width="60" height="30" as="geometry" />
        </mxCell>
        <mxCell id="i1HpS0fMFRLG9WeGAnzn-360" value="Ref" style="shape=umlFrame;whiteSpace=wrap;html=1;pointerEvents=0;" vertex="1" parent="i1HpS0fMFRLG9WeGAnzn-348">
          <mxGeometry x="150" y="80" width="110" height="80" as="geometry" />
        </mxCell>
        <mxCell id="i1HpS0fMFRLG9WeGAnzn-361" value="Create Limits" style="text;html=1;strokeColor=none;fillColor=none;align=center;verticalAlign=middle;whiteSpace=wrap;rounded=0;" vertex="1" parent="i1HpS0fMFRLG9WeGAnzn-348">
          <mxGeometry x="150" y="120" width="105" height="30" as="geometry" />
        </mxCell>
        <mxCell id="i1HpS0fMFRLG9WeGAnzn-362" value="" style="swimlane;startSize=0;fillColor=#0050ef;fontColor=#ffffff;strokeColor=#001DBC;" vertex="1" parent="1">
          <mxGeometry x="1540" y="860" width="180" height="160" as="geometry" />
        </mxCell>
        <mxCell id="i1HpS0fMFRLG9WeGAnzn-363" value="" style="swimlane;startSize=0;fillColor=#0050ef;fontColor=#ffffff;strokeColor=#001DBC;" vertex="1" parent="i1HpS0fMFRLG9WeGAnzn-362">
          <mxGeometry width="80" height="60" as="geometry" />
        </mxCell>
        <mxCell id="i1HpS0fMFRLG9WeGAnzn-364" value="Position Stat Menu (Editor)" style="text;html=1;strokeColor=none;fillColor=none;align=center;verticalAlign=middle;whiteSpace=wrap;rounded=0;" vertex="1" parent="i1HpS0fMFRLG9WeGAnzn-363">
          <mxGeometry x="10" y="15" width="60" height="30" as="geometry" />
        </mxCell>
        <mxCell id="i1HpS0fMFRLG9WeGAnzn-369" value="Return to Main Page" style="text;html=1;strokeColor=none;fillColor=none;align=center;verticalAlign=middle;whiteSpace=wrap;rounded=0;" vertex="1" parent="i1HpS0fMFRLG9WeGAnzn-362">
          <mxGeometry x="100" y="85" width="60" height="40" as="geometry" />
        </mxCell>
        <mxCell id="i1HpS0fMFRLG9WeGAnzn-370" value="Return to Previous Page" style="text;html=1;strokeColor=none;fillColor=none;align=center;verticalAlign=middle;whiteSpace=wrap;rounded=0;" vertex="1" parent="i1HpS0fMFRLG9WeGAnzn-362">
          <mxGeometry x="20" y="90" width="60" height="30" as="geometry" />
        </mxCell>
        <mxCell id="i1HpS0fMFRLG9WeGAnzn-371" value="Logging out" style="text;html=1;strokeColor=none;fillColor=none;align=center;verticalAlign=middle;whiteSpace=wrap;rounded=0;" vertex="1" parent="i1HpS0fMFRLG9WeGAnzn-362">
          <mxGeometry x="100" y="20" width="60" height="30" as="geometry" />
        </mxCell>
        <mxCell id="i1HpS0fMFRLG9WeGAnzn-374" value="" style="swimlane;startSize=0;fillColor=#0050ef;fontColor=#ffffff;strokeColor=#001DBC;" vertex="1" parent="1">
          <mxGeometry x="1300" y="1040" width="280" height="150" as="geometry" />
        </mxCell>
        <mxCell id="i1HpS0fMFRLG9WeGAnzn-375" value="" style="swimlane;startSize=0;fillColor=#0050ef;fontColor=#ffffff;strokeColor=#001DBC;" vertex="1" parent="i1HpS0fMFRLG9WeGAnzn-374">
          <mxGeometry width="80" height="60" as="geometry" />
        </mxCell>
        <mxCell id="i1HpS0fMFRLG9WeGAnzn-376" value="Identify Limits Menu(Editor)" style="text;html=1;strokeColor=none;fillColor=none;align=center;verticalAlign=middle;whiteSpace=wrap;rounded=0;" vertex="1" parent="i1HpS0fMFRLG9WeGAnzn-375">
          <mxGeometry x="10" y="15" width="60" height="30" as="geometry" />
        </mxCell>
        <mxCell id="i1HpS0fMFRLG9WeGAnzn-377" value="Open&amp;nbsp;&lt;br&gt;Positions List&lt;br&gt;Menu" style="text;html=1;strokeColor=none;fillColor=none;align=center;verticalAlign=middle;whiteSpace=wrap;rounded=0;" vertex="1" parent="i1HpS0fMFRLG9WeGAnzn-374">
          <mxGeometry x="10" y="90" width="80" height="30" as="geometry" />
        </mxCell>
        <mxCell id="i1HpS0fMFRLG9WeGAnzn-378" value="Logging out" style="text;html=1;strokeColor=none;fillColor=none;align=center;verticalAlign=middle;whiteSpace=wrap;rounded=0;" vertex="1" parent="i1HpS0fMFRLG9WeGAnzn-374">
          <mxGeometry x="200" y="90" width="60" height="30" as="geometry" />
        </mxCell>
        <mxCell id="i1HpS0fMFRLG9WeGAnzn-379" value="Return to Previous Page" style="text;html=1;strokeColor=none;fillColor=none;align=center;verticalAlign=middle;whiteSpace=wrap;rounded=0;" vertex="1" parent="i1HpS0fMFRLG9WeGAnzn-374">
          <mxGeometry x="105" y="90" width="60" height="30" as="geometry" />
        </mxCell>
        <mxCell id="i1HpS0fMFRLG9WeGAnzn-380" value="Return to Main Page" style="text;html=1;strokeColor=none;fillColor=none;align=center;verticalAlign=middle;whiteSpace=wrap;rounded=0;" vertex="1" parent="i1HpS0fMFRLG9WeGAnzn-374">
          <mxGeometry x="200" y="10" width="60" height="40" as="geometry" />
        </mxCell>
        <mxCell id="i1HpS0fMFRLG9WeGAnzn-381" value="Open&amp;nbsp;&lt;br&gt;Departments List&amp;nbsp;Menu" style="text;html=1;strokeColor=none;fillColor=none;align=center;verticalAlign=middle;whiteSpace=wrap;rounded=0;" vertex="1" parent="i1HpS0fMFRLG9WeGAnzn-374">
          <mxGeometry x="95" y="15" width="80" height="30" as="geometry" />
        </mxCell>
        <mxCell id="i1HpS0fMFRLG9WeGAnzn-382" value="" style="swimlane;startSize=0;fillColor=#0050ef;fontColor=#ffffff;strokeColor=#001DBC;" vertex="1" parent="1">
          <mxGeometry x="1760" y="860" width="280" height="150" as="geometry" />
        </mxCell>
        <mxCell id="i1HpS0fMFRLG9WeGAnzn-383" value="" style="swimlane;startSize=0;fillColor=#0050ef;fontColor=#ffffff;strokeColor=#001DBC;" vertex="1" parent="i1HpS0fMFRLG9WeGAnzn-382">
          <mxGeometry width="80" height="60" as="geometry" />
        </mxCell>
        <mxCell id="i1HpS0fMFRLG9WeGAnzn-384" value="Departments List Menu(Editor)" style="text;html=1;strokeColor=none;fillColor=none;align=center;verticalAlign=middle;whiteSpace=wrap;rounded=0;" vertex="1" parent="i1HpS0fMFRLG9WeGAnzn-383">
          <mxGeometry x="10" y="15" width="60" height="30" as="geometry" />
        </mxCell>
        <mxCell id="i1HpS0fMFRLG9WeGAnzn-386" value="Logging out" style="text;html=1;strokeColor=none;fillColor=none;align=center;verticalAlign=middle;whiteSpace=wrap;rounded=0;" vertex="1" parent="i1HpS0fMFRLG9WeGAnzn-382">
          <mxGeometry x="200" y="90" width="60" height="30" as="geometry" />
        </mxCell>
        <mxCell id="i1HpS0fMFRLG9WeGAnzn-387" value="Return to Previous Page" style="text;html=1;strokeColor=none;fillColor=none;align=center;verticalAlign=middle;whiteSpace=wrap;rounded=0;" vertex="1" parent="i1HpS0fMFRLG9WeGAnzn-382">
          <mxGeometry x="105" y="90" width="60" height="30" as="geometry" />
        </mxCell>
        <mxCell id="i1HpS0fMFRLG9WeGAnzn-388" value="Return to Main Page" style="text;html=1;strokeColor=none;fillColor=none;align=center;verticalAlign=middle;whiteSpace=wrap;rounded=0;" vertex="1" parent="i1HpS0fMFRLG9WeGAnzn-382">
          <mxGeometry x="110" y="10" width="60" height="40" as="geometry" />
        </mxCell>
        <mxCell id="i1HpS0fMFRLG9WeGAnzn-390" value="Open&amp;nbsp;&lt;br&gt;Positions List&lt;br&gt;Menu" style="text;html=1;strokeColor=none;fillColor=none;align=center;verticalAlign=middle;whiteSpace=wrap;rounded=0;" vertex="1" parent="i1HpS0fMFRLG9WeGAnzn-382">
          <mxGeometry x="10" y="90" width="80" height="30" as="geometry" />
        </mxCell>
      </root>
    </mxGraphModel>
  </diagram>
</mxfile>
